<?xml version="1.0" encoding="UTF-8" standalone="no"?><!DOCTYPE svg PUBLIC "-//W3C//DTD SVG 1.1//EN" "http://www.w3.org/Graphics/SVG/1.1/DTD/svg11.dtd"><svg width="100%" height="100%" viewBox="0 0 128 128" version="1.1" xmlns="http://www.w3.org/2000/svg" xmlns:xlink="http://www.w3.org/1999/xlink" xml:space="preserve" xmlns:serif="http://www.serif.com/" style="fill-rule:evenodd;clip-rule:evenodd;stroke-linejoin:round;stroke-miterlimit:2;"><g><path d="M64,115.292c30.324,-0 54.906,-22.964 54.906,-51.292c-0,-28.328 -24.582,-51.292 -54.906,-51.292c-30.324,0 -54.906,22.964 -54.906,51.292c-0,28.328 24.582,51.292 54.906,51.292Z" style="fill:#ff6c00;fill-rule:nonzero;"/><path d="M101.247,26.328c10.857,9.374 17.659,22.786 17.659,37.671c-0,17.065 -8.94,32.194 -22.682,41.522l-33.493,0l-0,-18.189c12.112,-1.208 21.56,-10.797 21.56,-22.432c-0,-11.634 -9.448,-21.223 -21.56,-22.431l-0,-16.141l38.516,0Z" style="fill:#4f80ff;"/><path d="M63.999,86.558c13.338,0 24.15,-10.1 24.15,-22.56c-0,-12.459 -10.812,-22.56 -24.15,-22.56c-13.337,0 -24.149,10.101 -24.149,22.56c-0,12.46 10.812,22.56 24.149,22.56Z" style="fill:#fced5d;fill-rule:nonzero;"/><path d="M53.604,83.551c5.84,2.014 12.154,3.113 18.741,3.113c19.75,0 37.047,-9.886 46.517,-24.645c0.03,0.657 0.043,1.317 0.043,1.979c0,26.707 -21.897,48.674 -49.821,51.07l-0.163,0.014c-1.623,0.14 -3.264,0.207 -4.922,0.207c-8.402,0 -16.368,-1.767 -23.489,-4.927l-0.094,-0.041c-7.953,-3.542 -14.853,-8.82 -20.135,-15.309c4.484,-7.85 13.343,-13.198 23.527,-13.198c3.455,0 6.759,0.616 9.786,1.743l0.01,-0.006Z" style="fill:#0008d0;"/><path d="M88.083,46.575c-0,0 -6.095,14.704 -23.889,14.704c-14.348,0 -25.996,-10.882 -25.996,-24.285c-0,-13.404 11.648,-24.286 25.996,-24.286c0.35,0 0.699,0.007 1.047,0.021l0.009,-0.008c28.274,0.494 51.35,21.003 53.656,46.98c-3.832,-8.382 -12.742,-14.259 -23.11,-14.259c-2.691,0 -5.285,0.396 -7.713,1.133Z" style="fill:#dae4ff;"/></g></svg>