<svg width="26" height="13" viewBox="0 0 26 13" fill="none" xmlns="http://www.w3.org/2000/svg">
<path d="M7.70291 8.71734C7.84672 8.84978 8.32325 9.10002 9.1 9.10002C9.87675 9.10002 10.3537 8.84978 10.4971 8.71734C11.1479 8.11731 11.8987 7.80003 12.6689 7.80003H13.3311C14.1013 7.80003 14.8525 8.11731 15.5029 8.71734C15.6467 8.84978 16.1232 9.10002 16.9 9.10002C17.6767 9.10002 18.1537 8.84978 18.2971 8.71734C18.9008 8.16037 19.5922 7.85934 20.3036 7.8171L15.7194 4.54274L16.4507 4.02031C16.5986 3.91549 16.7871 3.87731 16.9634 3.91428L21.0401 4.78893C22.0927 5.01358 23.1298 4.34327 23.3557 3.29069C23.5812 2.23769 22.9109 1.20095 21.8575 0.975075L17.7807 0.100425C16.5323 -0.166886 15.2206 0.1053 14.183 0.847107L10.9322 3.16962C10.5105 3.46984 10.1457 3.8375 9.84669 4.26406L7.05859 8.2469C7.28081 8.37812 7.49816 8.52843 7.70291 8.71734ZM25.35 10.4H24.7C23.6421 10.4 22.8394 10.058 22.4213 9.67283C22.0598 9.3393 21.6227 9.10002 21.1307 9.10002H20.4685C19.9765 9.10002 19.5394 9.3393 19.1778 9.67283C18.7606 10.058 17.9579 10.4 16.9 10.4C15.8421 10.4 15.0394 10.058 14.6213 9.67283C14.2598 9.3393 13.8227 9.10002 13.3307 9.10002H12.6685C12.1765 9.10002 11.7394 9.3393 11.3778 9.67283C10.9606 10.058 10.1579 10.4 9.1 10.4C8.04212 10.4 7.23937 10.058 6.82134 9.67283C6.45978 9.3393 6.02266 9.10002 5.53069 9.10002H4.8685C4.37653 9.10002 3.93941 9.3393 3.57784 9.67283C3.16062 10.058 2.35787 10.4 1.3 10.4H0.65C0.290875 10.4 0 10.6909 0 11.05V12.35C0 12.7091 0.290875 13 0.65 13H1.3C2.86894 13 4.25425 12.5048 5.2 11.7065C6.14575 12.5052 7.53106 13 9.1 13C10.6689 13 12.0542 12.5048 13 11.7065C13.9457 12.5052 15.3311 13 16.9 13C18.4689 13 19.8542 12.5048 20.8 11.7065C21.7457 12.5052 23.1311 13 24.7 13H25.35C25.7091 13 26 12.7091 26 12.35V11.05C26 10.6909 25.7091 10.4 25.35 10.4ZM4.55 6.50004C6.34481 6.50004 7.8 5.04486 7.8 3.25006C7.8 1.45526 6.34481 8.14897e-05 4.55 8.14897e-05C2.75519 8.14897e-05 1.3 1.45526 1.3 3.25006C1.3 5.04486 2.75519 6.50004 4.55 6.50004Z" fill="#FF4D00"/>
</svg>
