<svg width="26" height="23" viewBox="0 0 26 23" fill="none" xmlns="http://www.w3.org/2000/svg">
<path d="M25.3289 6.16994V20.0908C25.3289 21.3717 24.2897 22.4109 23.0088 22.4109H2.90095C1.62004 22.4109 0.580811 21.3717 0.580811 20.0908V6.16994C0.580811 4.88903 1.62004 3.8498 2.90095 3.8498H7.15453L7.74907 2.25954C8.08742 1.35566 8.95264 0.756287 9.91936 0.756287H15.9856C16.9523 0.756287 17.8175 1.35566 18.1558 2.25954L18.7552 3.8498H23.0088C24.2897 3.8498 25.3289 4.88903 25.3289 6.16994ZM18.7552 13.1303C18.7552 9.93049 16.1547 7.33001 12.9549 7.33001C9.75502 7.33001 7.15453 9.93049 7.15453 13.1303C7.15453 16.3302 9.75502 18.9307 12.9549 18.9307C16.1547 18.9307 18.7552 16.3302 18.7552 13.1303ZM17.2085 13.1303C17.2085 15.4747 15.2992 17.3839 12.9549 17.3839C10.6106 17.3839 8.70129 15.4747 8.70129 13.1303C8.70129 10.786 10.6106 8.87676 12.9549 8.87676C15.2992 8.87676 17.2085 10.786 17.2085 13.1303Z" fill="#FF4D00"/>
</svg>
