<svg width="33" height="33" viewBox="0 0 33 33" fill="none" xmlns="http://www.w3.org/2000/svg">
<path d="M33 16.5C33 25.6147 25.6121 33 16.5 33C7.38794 33 0 25.6147 0 16.5C0 7.3906 7.38794 0 16.5 0C25.6121 0 33 7.3906 33 16.5ZM16.9428 5.45565C13.317 5.45565 11.0044 6.98303 9.1885 9.69761C8.95325 10.0493 9.03195 10.5236 9.36914 10.7793L11.6777 12.5298C12.024 12.7924 12.5174 12.7299 12.7865 12.3886C13.975 10.8811 14.79 10.0069 16.599 10.0069C17.9582 10.0069 19.6394 10.8817 19.6394 12.1997C19.6394 13.1961 18.8169 13.7078 17.4748 14.4602C15.9097 15.3375 13.8387 16.4295 13.8387 19.1613V19.4274C13.8387 19.8683 14.1962 20.2258 14.6371 20.2258H18.3629C18.8038 20.2258 19.1613 19.8683 19.1613 19.4274V19.3387C19.1613 17.4451 24.6958 17.3662 24.6958 12.2419C24.6958 8.38293 20.6929 5.45565 16.9428 5.45565ZM16.5 21.9556C14.8124 21.9556 13.4395 23.3285 13.4395 25.0161C13.4395 26.7037 14.8124 28.0766 16.5 28.0766C18.1876 28.0766 19.5605 26.7037 19.5605 25.0161C19.5605 23.3285 18.1876 21.9556 16.5 21.9556Z" fill="#FF4D00"/>
</svg>
