<svg width="89" height="59" viewBox="0 0 89 59" fill="none" xmlns="http://www.w3.org/2000/svg">
<path d="M86.3848 49.1555C83.0806 48.7867 79.9148 47.5419 77.4866 45.6362C75.3197 43.9303 72.2307 43.8996 70.0791 45.6362C64.2546 50.3082 53.6044 50.3082 47.6876 45.4057C45.6129 43.6844 42.6161 44.0072 40.5107 45.6823C34.6707 50.3082 24.082 50.2928 18.196 45.4211C16.1213 43.6998 13.0784 44.0533 10.9575 45.7284C8.57547 47.6033 5.42498 48.8174 2.09008 49.1709C0.875989 49.2938 0 50.3696 0 51.5837V56.5323C0 57.9308 1.16799 59.1141 2.56649 58.9912C6.99254 58.607 11.1881 57.2392 14.7689 55.0108C23.4519 60.3282 35.8233 60.2514 44.2759 55.0108C52.9589 60.3282 65.3303 60.2514 73.7829 55.0108C77.3637 57.1931 81.6053 58.5916 85.9391 58.9758C87.3376 59.0988 88.5056 57.9154 88.5056 56.5169V51.6606C88.521 50.4311 87.6296 49.2938 86.3848 49.1555ZM86.3848 27.0253C83.0806 26.6564 79.9148 25.4116 77.4866 23.506C75.3197 21.8001 72.2307 21.7694 70.0791 23.506C64.2546 28.1779 53.6044 28.1779 47.6876 23.2754C45.6129 21.5542 42.6161 21.8769 40.5107 23.5521C34.6707 28.1779 24.082 28.1625 18.196 23.2908C16.1213 21.5696 13.0784 21.923 10.9575 23.5982C8.57547 25.4731 5.42498 26.6872 2.09008 27.0407C0.875989 27.1636 0 28.2394 0 29.4535V34.402C0 35.8005 1.16799 36.9839 2.56649 36.861C6.99254 36.4767 11.1881 35.109 14.7689 32.8806C23.4519 38.198 35.8233 38.1211 44.2759 32.8806C52.9589 38.198 65.3303 38.1211 73.7829 32.8806C77.3637 35.0629 81.6053 36.4614 85.9391 36.8456C87.3376 36.9685 88.5056 35.7852 88.5056 34.3867V29.5303C88.521 28.3009 87.6296 27.1636 86.3848 27.0253ZM86.3848 4.89503C83.0806 4.51083 79.9148 3.28137 77.4866 1.37571C75.3197 -0.330165 72.2307 -0.360902 70.0791 1.37571C64.2546 6.04765 53.6044 6.04765 47.6876 1.14519C45.6129 -0.576057 42.6161 -0.253323 40.5107 1.42181C34.6707 6.04765 24.082 6.03228 18.196 1.16055C16.1213 -0.560689 13.0784 -0.207219 10.9575 1.46792C8.57547 3.34284 5.42498 4.55693 2.09008 4.9104C0.875989 5.03335 0 6.10912 0 7.32321V12.2718C0 13.6703 1.16799 14.8536 2.56649 14.7307C6.99254 14.3465 11.1881 12.9787 14.7689 10.7503C23.4519 16.0677 35.8233 15.9909 44.2759 10.7503C52.9589 16.0677 65.3303 15.9909 73.7829 10.7503C77.3637 12.9326 81.6053 14.3311 85.9391 14.7153C87.3376 14.8383 88.5056 13.6549 88.5056 12.2564V7.40005C88.521 6.1706 87.6296 5.03335 86.3848 4.89503Z" fill="#FF4D00"/>
</svg>
