<svg width="25" height="20" viewBox="0 0 25 20" fill="none" xmlns="http://www.w3.org/2000/svg">
<path d="M4.50703 5.34788L8.4957 6.80022C9.87031 3.61507 11.8633 1.16389 13.9254 0.015066C10.1801 -0.17595 6.55117 1.45882 4.21719 4.38225C3.95586 4.71038 4.11328 5.20452 4.50703 5.34788ZM9.67305 7.22913L18.9887 10.6209C20.3855 5.87952 19.7191 1.57171 17.3234 0.699832C17.0344 0.594363 16.7324 0.543582 16.4215 0.543582C14.1551 0.543972 11.4109 3.24553 9.67305 7.22913ZM20.3703 2.3635C20.6133 3.00022 20.7934 3.71507 20.8859 4.51936C21.1102 6.46819 20.8305 8.7471 20.1457 11.042L24.1543 12.5014C24.5484 12.6448 24.9867 12.3674 24.9969 11.9479C25.0875 8.20999 23.3598 4.626 20.3703 2.3635ZM21.875 17.4994H12.5414L15.0781 10.5276L12.7289 9.6721L9.88125 17.499H0.625C0.279687 17.499 0 17.7787 0 18.1244V19.3748C0 19.7201 0.279687 20.0002 0.625 20.0002H21.875C22.2203 20.0002 22.5 19.7201 22.5 19.3748V18.1244C22.5 17.7791 22.2203 17.4994 21.875 17.4994Z" fill="#FF4D00"/>
</svg>
