<svg width="45" height="36" viewBox="0 0 45 36" fill="none" xmlns="http://www.w3.org/2000/svg">
<path d="M24.1973 11C20.2924 11 16.8822 13.3772 14.9842 15.411L11.1939 12.5443C10.6674 12.1458 9.88137 12.5703 10.0159 13.1806L11.0654 17.9444L10.0155 22.7088C9.88094 23.319 10.667 23.7431 11.1934 23.3451L14.9838 20.4783C16.8818 22.5117 20.2924 24.8889 24.1973 24.8889C30.1635 24.8889 35.0003 19.3333 35.0003 17.9444C35.0003 16.5556 30.1635 11 24.1973 11ZM27.9921 18.9861C27.417 18.9861 26.9504 18.5195 26.9504 17.9444C26.9504 17.3689 27.417 16.9028 27.9921 16.9028C28.5676 16.9028 29.0337 17.3689 29.0337 17.9444C29.0337 18.5195 28.5671 18.9861 27.9921 18.9861Z" fill="#FF4D00"/>
</svg>
