<svg width="155" height="161" viewBox="0 0 155 161" fill="none" xmlns="http://www.w3.org/2000/svg">
<g clip-path="url(#clip0_1113_474)">
<path d="M76.4755 109.177C105.763 109.177 129.504 84.7371 129.504 54.5886C129.504 24.4402 105.763 0 76.4755 0C47.1884 0 23.4465 24.4402 23.4465 54.5886C23.4465 84.7371 47.1884 109.177 76.4755 109.177Z" fill="#FF6C00"/>
<path fill-rule="evenodd" clip-rule="evenodd" d="M112.45 14.4956C122.936 24.472 129.505 38.7464 129.505 54.588C129.505 72.7492 120.871 88.851 107.599 98.7788H75.2506V79.4202C86.9488 78.1348 96.0736 67.9292 96.0736 55.547C96.0736 43.1648 86.9488 32.9592 75.2506 31.6736V14.4956H112.45Z" fill="#9867FF"/>
<path d="M76.4758 78.5967C89.3573 78.5967 99.7999 67.8471 99.7999 54.5867C99.7999 41.3263 89.3573 30.5767 76.4758 30.5767C63.5943 30.5767 53.1518 41.3263 53.1518 54.5867C53.1518 67.8471 63.5943 78.5967 76.4758 78.5967Z" fill="#FCED5D"/>
<path fill-rule="evenodd" clip-rule="evenodd" d="M66.4357 75.3971C72.076 77.5408 78.1745 78.7109 84.536 78.7109C103.611 78.7109 120.317 68.1895 129.463 52.4819C129.492 53.1808 129.505 53.8827 129.505 54.588C129.505 83.0108 108.357 106.39 81.387 108.94L81.2292 108.955C79.6618 109.104 78.0769 109.176 76.4756 109.176C68.3604 109.176 60.6672 107.295 53.7895 103.932L53.6985 103.888C46.0174 100.118 39.3534 94.5013 34.2523 87.595C38.5828 79.24 47.1386 73.5489 56.9746 73.5489C60.3121 73.5489 63.5027 74.2045 66.4259 75.4038L66.4357 75.3971Z" fill="#0008D0"/>
<path fill-rule="evenodd" clip-rule="evenodd" d="M99.7353 36.044C99.7353 36.044 93.8493 51.6931 76.6636 51.6931C62.8061 51.6931 51.5555 40.1116 51.5555 25.8465C51.5555 11.5815 62.8061 0 76.6636 0C77.0017 0 77.3382 0.00688131 77.6748 0.0226774L77.6835 0.0133134C104.99 0.539548 127.277 22.3666 129.505 50.0138C125.804 41.0925 117.198 34.8382 107.185 34.8382C104.585 34.8382 102.081 35.2597 99.7353 36.044Z" fill="#9CBEFF"/>
</g>
<path d="M6.75262 146.12C6.54629 146.176 6.21804 146.232 5.76786 146.289C5.33645 146.345 4.90503 146.373 4.47361 146.373C4.04219 146.373 3.65767 146.336 3.32004 146.261C3.00117 146.204 2.72918 146.092 2.5041 145.923C2.27901 145.754 2.11019 145.52 1.99765 145.22C1.88511 144.919 1.82884 144.526 1.82884 144.038V129.182C2.03517 129.145 2.36342 129.098 2.81359 129.041C3.26377 128.966 3.69518 128.929 4.10785 128.929C4.53926 128.929 4.91441 128.966 5.23328 129.041C5.57091 129.098 5.85227 129.21 6.07736 129.379C6.30245 129.548 6.47126 129.782 6.58381 130.082C6.69635 130.383 6.75262 130.776 6.75262 131.264V146.12ZM9.27606 134.781C9.42612 134.068 9.71686 133.487 10.1483 133.037C10.5985 132.586 11.1518 132.361 11.8083 132.361C12.4273 132.361 12.9056 132.511 13.2432 132.812C13.5809 133.112 13.956 133.534 14.3687 134.078L16.1694 136.441L19.1799 132.361C20.2116 132.361 21.0275 132.549 21.6277 132.924C22.228 133.281 22.5281 133.768 22.5281 134.387C22.5281 134.631 22.4906 134.856 22.4155 135.062C22.3593 135.25 22.2655 135.447 22.1342 135.653C22.0029 135.86 21.8341 136.094 21.6277 136.357C21.4214 136.619 21.1776 136.929 20.8962 137.285L19.0392 139.367L22.725 144.235C22.6312 144.948 22.3499 145.51 21.881 145.923C21.412 146.336 20.8493 146.542 20.1928 146.542C19.48 146.523 18.9079 146.317 18.4765 145.923C18.0638 145.529 17.6606 145.051 17.2667 144.488L15.7473 142.322L12.8775 146.458C12.7837 146.458 12.6805 146.458 12.568 146.458C12.4554 146.476 12.3616 146.486 12.2866 146.486C11.33 146.486 10.5985 146.289 10.092 145.895C9.60431 145.501 9.36047 145.013 9.36047 144.432C9.36047 143.982 9.46364 143.588 9.66997 143.25C9.89505 142.894 10.2702 142.415 10.7954 141.815L13.0463 139.198L9.27606 134.781ZM29.5462 141.534C29.5462 142.021 29.6963 142.368 29.9964 142.575C30.3153 142.781 30.7561 142.884 31.3188 142.884C31.6002 142.884 31.8909 142.865 32.191 142.828C32.4911 142.772 32.7537 142.706 32.9788 142.631C33.1476 142.837 33.2883 143.072 33.4009 143.334C33.5322 143.578 33.5978 143.878 33.5978 144.235C33.5978 144.948 33.3258 145.529 32.7819 145.979C32.2567 146.429 31.3188 146.654 29.9683 146.654C28.3176 146.654 27.0421 146.279 26.1418 145.529C25.2602 144.779 24.8194 143.56 24.8194 141.871V129.829C25.0257 129.773 25.3165 129.717 25.6916 129.66C26.0855 129.585 26.4982 129.548 26.9296 129.548C27.7549 129.548 28.3927 129.698 28.8428 129.998C29.3118 130.279 29.5462 130.889 29.5462 131.827V133.628H33.232C33.3446 133.834 33.4478 134.096 33.5415 134.415C33.6541 134.715 33.7104 135.053 33.7104 135.428C33.7104 136.085 33.5603 136.563 33.2602 136.863C32.9788 137.145 32.5943 137.285 32.1066 137.285H29.5462V141.534ZM41.8808 143.194C42.1996 143.194 42.5466 143.166 42.9218 143.109C43.3157 143.034 43.6064 142.941 43.794 142.828V140.577L41.7682 140.746C41.243 140.783 40.8116 140.896 40.474 141.084C40.1363 141.271 39.9675 141.552 39.9675 141.928C39.9675 142.303 40.1082 142.612 40.3896 142.856C40.6897 143.081 41.1867 143.194 41.8808 143.194ZM41.6557 132.136C42.6686 132.136 43.5877 132.239 44.413 132.446C45.2571 132.652 45.9699 132.971 46.5513 133.402C47.1516 133.815 47.6111 134.35 47.93 135.006C48.2489 135.644 48.4083 136.404 48.4083 137.285V143.588C48.4083 144.075 48.2676 144.479 47.9863 144.797C47.7237 145.098 47.4048 145.36 47.0296 145.585C45.8104 146.317 44.0941 146.683 41.8808 146.683C40.8866 146.683 39.9863 146.589 39.1797 146.401C38.3919 146.214 37.7073 145.932 37.1258 145.557C36.5631 145.182 36.1223 144.704 35.8034 144.122C35.5033 143.541 35.3532 142.865 35.3532 142.096C35.3532 140.802 35.7378 139.808 36.5068 139.114C37.2758 138.42 38.4669 137.989 40.0801 137.82L43.7659 137.426V137.229C43.7659 136.685 43.522 136.3 43.0343 136.075C42.5654 135.832 41.8808 135.71 40.9804 135.71C40.2676 135.71 39.5736 135.785 38.8984 135.935C38.2231 136.085 37.6135 136.272 37.0695 136.497C36.8257 136.329 36.6193 136.075 36.4505 135.738C36.2817 135.381 36.1973 135.016 36.1973 134.64C36.1973 134.153 36.3098 133.768 36.5349 133.487C36.7788 133.187 37.1445 132.934 37.6322 132.727C38.1762 132.521 38.8139 132.371 39.5455 132.277C40.2958 132.183 40.9992 132.136 41.6557 132.136ZM57.6072 132.136C58.7326 132.136 59.7737 132.286 60.7303 132.586C61.7057 132.868 62.5404 133.309 63.2344 133.909C63.9284 134.509 64.4724 135.269 64.8663 136.188C65.2602 137.088 65.4571 138.167 65.4571 139.424C65.4571 140.624 65.2883 141.674 64.9507 142.575C64.613 143.475 64.1347 144.235 63.5157 144.854C62.8968 145.454 62.1465 145.904 61.2649 146.204C60.402 146.504 59.436 146.654 58.3669 146.654C57.5603 146.654 56.81 146.533 56.116 146.289V150.959C55.9284 151.016 55.6283 151.072 55.2156 151.128C54.803 151.203 54.381 151.241 53.9495 151.241C53.5369 151.241 53.1617 151.212 52.8241 151.156C52.5052 151.1 52.2332 150.987 52.0082 150.819C51.7831 150.65 51.6143 150.415 51.5017 150.115C51.3892 149.834 51.3329 149.459 51.3329 148.99V135.484C51.3329 134.978 51.4361 134.565 51.6424 134.247C51.8675 133.928 52.1676 133.637 52.5427 133.374C53.1242 132.999 53.8464 132.699 54.7092 132.474C55.572 132.249 56.538 132.136 57.6072 132.136ZM57.6635 142.884C59.5955 142.884 60.5615 141.731 60.5615 139.424C60.5615 138.223 60.3176 137.332 59.8299 136.751C59.361 136.169 58.6764 135.878 57.776 135.878C57.4196 135.878 57.1008 135.925 56.8194 136.019C56.538 136.094 56.2942 136.188 56.0879 136.3V142.49C56.313 142.603 56.5568 142.697 56.8194 142.772C57.082 142.847 57.3634 142.884 57.6635 142.884ZM73.6985 143.194C74.0174 143.194 74.3644 143.166 74.7396 143.109C75.1335 143.034 75.4242 142.941 75.6118 142.828V140.577L73.586 140.746C73.0608 140.783 72.6294 140.896 72.2917 141.084C71.9541 141.271 71.7853 141.552 71.7853 141.928C71.7853 142.303 71.926 142.612 72.2073 142.856C72.5074 143.081 73.0045 143.194 73.6985 143.194ZM73.4734 132.136C74.4863 132.136 75.4054 132.239 76.2308 132.446C77.0748 132.652 77.7876 132.971 78.3691 133.402C78.9693 133.815 79.4289 134.35 79.7478 135.006C80.0666 135.644 80.2261 136.404 80.2261 137.285V143.588C80.2261 144.075 80.0854 144.479 79.804 144.797C79.5414 145.098 79.2226 145.36 78.8474 145.585C77.6282 146.317 75.9119 146.683 73.6985 146.683C72.7044 146.683 71.804 146.589 70.9975 146.401C70.2097 146.214 69.525 145.932 68.9436 145.557C68.3808 145.182 67.94 144.704 67.6212 144.122C67.3211 143.541 67.171 142.865 67.171 142.096C67.171 140.802 67.5555 139.808 68.3246 139.114C69.0936 138.42 70.2847 137.989 71.8978 137.82L75.5836 137.426V137.229C75.5836 136.685 75.3398 136.3 74.8521 136.075C74.3832 135.832 73.6985 135.71 72.7982 135.71C72.0854 135.71 71.3914 135.785 70.7161 135.935C70.0409 136.085 69.4313 136.272 68.8873 136.497C68.6434 136.329 68.4371 136.075 68.2683 135.738C68.0995 135.381 68.0151 135.016 68.0151 134.64C68.0151 134.153 68.1276 133.768 68.3527 133.487C68.5966 133.187 68.9623 132.934 69.45 132.727C69.994 132.521 70.6317 132.371 71.3633 132.277C72.1135 132.183 72.8169 132.136 73.4734 132.136Z" fill="#0008D0"/>
<path d="M90.3535 133.121H83.432C83.3007 132.915 83.1788 132.633 83.0663 132.277C82.9537 131.921 82.8974 131.545 82.8974 131.152C82.8974 130.42 83.0569 129.895 83.3758 129.576C83.7134 129.257 84.1448 129.098 84.67 129.098H95.1647C95.99 129.773 96.4027 130.673 96.4027 131.799C96.4027 132.268 96.2901 132.737 96.0651 133.205C95.8587 133.656 95.5867 134.087 95.2491 134.5L88.8623 142.209H96.0651C96.1964 142.415 96.3183 142.697 96.4308 143.053C96.5434 143.409 96.5996 143.785 96.5996 144.178C96.5996 144.91 96.4308 145.435 96.0932 145.754C95.7743 146.073 95.3523 146.232 94.8271 146.232H83.7415C83.4226 145.97 83.16 145.613 82.9537 145.163C82.7474 144.713 82.6442 144.197 82.6442 143.616C82.6442 143.147 82.7661 142.669 83.01 142.181C83.2538 141.693 83.5446 141.243 83.8822 140.83L90.3535 133.121ZM98.7821 128.76C98.7821 128.047 99.0166 127.447 99.4855 126.959C99.9732 126.472 100.611 126.228 101.399 126.228C102.187 126.228 102.815 126.472 103.284 126.959C103.772 127.447 104.015 128.047 104.015 128.76C104.015 129.473 103.772 130.073 103.284 130.561C102.815 131.048 102.187 131.292 101.399 131.292C100.611 131.292 99.9732 131.048 99.4855 130.561C99.0166 130.073 98.7821 129.473 98.7821 128.76ZM103.79 146.204C103.584 146.242 103.275 146.289 102.862 146.345C102.468 146.42 102.065 146.458 101.652 146.458C101.239 146.458 100.864 146.429 100.527 146.373C100.208 146.317 99.9357 146.204 99.7106 146.035C99.4855 145.867 99.3074 145.642 99.1761 145.36C99.0635 145.06 99.0072 144.676 99.0072 144.207V132.755C99.2136 132.718 99.5137 132.671 99.9076 132.615C100.32 132.54 100.733 132.502 101.146 132.502C101.558 132.502 101.924 132.53 102.243 132.586C102.58 132.643 102.862 132.755 103.087 132.924C103.312 133.093 103.481 133.327 103.593 133.628C103.725 133.909 103.79 134.284 103.79 134.753V146.204ZM120.341 146.204C120.153 146.261 119.853 146.317 119.44 146.373C119.046 146.429 118.634 146.458 118.202 146.458C117.79 146.458 117.415 146.429 117.077 146.373C116.758 146.317 116.486 146.204 116.261 146.035C116.036 145.867 115.858 145.642 115.726 145.36C115.614 145.06 115.558 144.676 115.558 144.207V137.96C115.558 137.191 115.361 136.657 114.967 136.357C114.592 136.038 114.123 135.878 113.56 135.878C113.185 135.878 112.828 135.925 112.491 136.019C112.153 136.113 111.881 136.225 111.675 136.357V146.204C111.487 146.261 111.187 146.317 110.774 146.373C110.381 146.429 109.968 146.458 109.536 146.458C109.124 146.458 108.749 146.429 108.411 146.373C108.092 146.317 107.82 146.204 107.595 146.035C107.37 145.867 107.192 145.642 107.06 145.36C106.948 145.06 106.892 144.676 106.892 144.207V127.888C107.098 127.85 107.398 127.803 107.792 127.747C108.205 127.672 108.617 127.635 109.03 127.635C109.443 127.635 109.808 127.663 110.127 127.719C110.465 127.775 110.746 127.888 110.971 128.057C111.196 128.225 111.365 128.46 111.478 128.76C111.609 129.041 111.675 129.417 111.675 129.885V132.643C111.919 132.549 112.284 132.446 112.772 132.333C113.279 132.202 113.832 132.136 114.432 132.136C116.289 132.136 117.733 132.605 118.765 133.543C119.815 134.462 120.341 135.841 120.341 137.679V146.204ZM123.294 132.755C123.481 132.699 123.772 132.643 124.166 132.586C124.579 132.53 125.001 132.502 125.432 132.502C125.845 132.502 126.211 132.53 126.529 132.586C126.867 132.643 127.148 132.755 127.374 132.924C127.599 133.093 127.767 133.327 127.88 133.628C128.011 133.909 128.077 134.284 128.077 134.753V140.802C128.077 141.571 128.264 142.125 128.64 142.462C129.015 142.781 129.559 142.941 130.272 142.941C130.703 142.941 131.05 142.903 131.313 142.828C131.594 142.753 131.81 142.678 131.96 142.603V132.755C132.147 132.699 132.438 132.643 132.832 132.586C133.245 132.53 133.667 132.502 134.098 132.502C134.511 132.502 134.876 132.53 135.195 132.586C135.533 132.643 135.814 132.755 136.039 132.924C136.264 133.093 136.433 133.327 136.546 133.628C136.677 133.909 136.743 134.284 136.743 134.753V143.306C136.743 144.244 136.349 144.948 135.561 145.416C134.905 145.829 134.117 146.139 133.198 146.345C132.297 146.57 131.313 146.683 130.243 146.683C129.23 146.683 128.293 146.57 127.43 146.345C126.586 146.12 125.854 145.773 125.235 145.304C124.616 144.835 124.138 144.235 123.8 143.503C123.463 142.753 123.294 141.853 123.294 140.802V132.755ZM145.522 143.194C145.841 143.194 146.188 143.166 146.563 143.109C146.957 143.034 147.248 142.941 147.435 142.828V140.577L145.41 140.746C144.884 140.783 144.453 140.896 144.115 141.084C143.778 141.271 143.609 141.552 143.609 141.928C143.609 142.303 143.75 142.612 144.031 142.856C144.331 143.081 144.828 143.194 145.522 143.194ZM145.297 132.136C146.31 132.136 147.229 132.239 148.054 132.446C148.898 132.652 149.611 132.971 150.193 133.402C150.793 133.815 151.252 134.35 151.571 135.006C151.89 135.644 152.05 136.404 152.05 137.285V143.588C152.05 144.075 151.909 144.479 151.628 144.797C151.365 145.098 151.046 145.36 150.671 145.585C149.452 146.317 147.735 146.683 145.522 146.683C144.528 146.683 143.628 146.589 142.821 146.401C142.033 146.214 141.349 145.932 140.767 145.557C140.204 145.182 139.764 144.704 139.445 144.122C139.145 143.541 138.995 142.865 138.995 142.096C138.995 140.802 139.379 139.808 140.148 139.114C140.917 138.42 142.108 137.989 143.721 137.82L147.407 137.426V137.229C147.407 136.685 147.163 136.3 146.676 136.075C146.207 135.832 145.522 135.71 144.622 135.71C143.909 135.71 143.215 135.785 142.54 135.935C141.864 136.085 141.255 136.272 140.711 136.497C140.467 136.329 140.261 136.075 140.092 135.738C139.923 135.381 139.839 135.016 139.839 134.64C139.839 134.153 139.951 133.768 140.176 133.487C140.42 133.187 140.786 132.934 141.274 132.727C141.818 132.521 142.455 132.371 143.187 132.277C143.937 132.183 144.64 132.136 145.297 132.136Z" fill="#FF6C00"/>
<defs>
<clipPath id="clip0_1113_474">
<rect width="106.291" height="109.417" fill="white" transform="translate(23.4465)"/>
</clipPath>
</defs>
</svg>
