<svg width="256" height="63" viewBox="0 0 256 63" fill="none" xmlns="http://www.w3.org/2000/svg">
<g clip-path="url(#clip0_725_328)">
<path d="M33.3368 62.2849C51.7482 62.2849 66.6736 48.3419 66.6736 31.1424C66.6736 13.9429 51.7482 0 33.3368 0C14.9254 0 0 13.9429 0 31.1424C0 48.3419 14.9254 62.2849 33.3368 62.2849Z" fill="#FF6C00"/>
<path fill-rule="evenodd" clip-rule="evenodd" d="M55.9519 8.26953C62.5437 13.961 66.6736 22.1044 66.6736 31.142C66.6736 41.5028 61.2456 50.6888 52.902 56.3525H32.5663V45.3085C39.9204 44.5752 45.6567 38.753 45.6567 31.6891C45.6567 24.6251 39.9204 18.8029 32.5663 18.0695V8.26953H55.9519Z" fill="#4F80FF"/>
<path d="M33.3365 44.839C41.4345 44.839 47.9992 38.7064 47.9992 31.1414C47.9992 23.5765 41.4345 17.4438 33.3365 17.4438C25.2385 17.4438 18.6738 23.5765 18.6738 31.1414C18.6738 38.7064 25.2385 44.839 33.3365 44.839Z" fill="#FCED5D"/>
<path fill-rule="evenodd" clip-rule="evenodd" d="M27.0248 43.0129C30.5706 44.2359 34.4044 44.9034 38.4036 44.9034C50.3949 44.9034 60.8972 38.901 66.6472 29.9399C66.6651 30.3386 66.6734 30.7391 66.6734 31.1414C66.6734 47.3564 53.3784 60.6942 36.424 62.1489L36.3247 62.1572C35.3394 62.2422 34.3431 62.2834 33.3364 62.2834C28.2348 62.2834 23.3984 61.2104 19.0747 59.2916L19.0175 59.2665C14.1887 57.1159 9.99938 53.9117 6.7926 49.9717C9.51499 45.2052 14.8936 41.9585 21.077 41.9585C23.1752 41.9585 25.1809 42.3325 27.0186 43.0167L27.0248 43.0129Z" fill="#0008D0"/>
<path fill-rule="evenodd" clip-rule="evenodd" d="M47.9591 20.5629C47.9591 20.5629 44.2588 29.4906 33.455 29.4906C24.7434 29.4906 17.6707 22.8834 17.6707 14.7453C17.6707 6.60714 24.7434 0 33.455 0C33.6675 0 33.8791 0.00392574 34.0907 0.0129373L34.0961 0.00759521C51.2627 0.307809 65.2734 12.76 66.6739 28.5325C64.3473 23.443 58.9373 19.875 52.6423 19.875C51.0081 19.875 49.4336 20.1154 47.9591 20.5629Z" fill="#DAE4FF"/>
</g>
<path d="M84.521 40.5205V19.2892H90.4848V40.5205H84.521ZM102.163 40.5205L99.3304 35.332L97.9587 34.5865L92.1142 25.8495H98.7937L101.656 31.0976L102.998 31.7835L108.783 40.5205H102.163ZM91.816 40.5205L97.8991 31.694L101.179 35.1829L97.9587 40.5205H91.816ZM102.64 34.5865L99.3602 31.0976L102.342 25.8495H108.485L102.64 34.5865ZM111.844 40.5205V19.826H117.688V40.5205H111.844ZM108.713 30.6205V25.8495H120.819V30.6205H108.713ZM128.365 40.8187C126.994 40.8187 125.781 40.4907 124.728 39.8347C123.674 39.1786 122.849 38.2841 122.253 37.1509C121.656 35.9979 121.358 34.6759 121.358 33.185C121.358 31.694 121.656 30.372 122.253 29.219C122.849 28.066 123.674 27.1714 124.728 26.5353C125.781 25.8793 126.994 25.5513 128.365 25.5513C129.22 25.5513 130.006 25.7004 130.721 25.9986C131.457 26.2769 132.063 26.6745 132.54 27.1913C133.037 27.7082 133.355 28.3046 133.494 28.9805V37.3895C133.355 38.0654 133.037 38.6618 132.54 39.1786C132.063 39.6955 131.457 40.103 130.721 40.4012C130.006 40.6795 129.22 40.8187 128.365 40.8187ZM129.677 35.6898C130.413 35.6898 130.999 35.4612 131.437 35.004C131.894 34.5268 132.123 33.9205 132.123 33.185C132.123 32.688 132.023 32.2606 131.824 31.9028C131.626 31.5251 131.337 31.2269 130.96 31.0082C130.602 30.7895 130.184 30.6802 129.707 30.6802C129.23 30.6802 128.803 30.7895 128.425 31.0082C128.067 31.2269 127.779 31.5251 127.56 31.9028C127.342 32.2805 127.232 32.7079 127.232 33.185C127.232 33.6621 127.332 34.0895 127.531 34.4672C127.749 34.8449 128.047 35.1431 128.425 35.3618C128.803 35.5805 129.22 35.6898 129.677 35.6898ZM131.944 40.5205V36.5844L132.749 33.0061L131.944 29.4576V25.8495H137.639V40.5205H131.944ZM149.488 40.8187C148.613 40.8187 147.788 40.6795 147.013 40.4012C146.238 40.103 145.582 39.6955 145.045 39.1786C144.508 38.6618 144.16 38.0654 144.001 37.3895V29.2787C144.16 28.6028 144.508 27.9865 145.045 27.4299C145.582 26.8534 146.238 26.3961 147.013 26.0582C147.788 25.7202 148.613 25.5513 149.488 25.5513C150.939 25.5513 152.201 25.8793 153.275 26.5353C154.368 27.1714 155.213 28.066 155.81 29.219C156.426 30.372 156.734 31.694 156.734 33.185C156.734 34.6759 156.426 35.9979 155.81 37.1509C155.213 38.2841 154.368 39.1786 153.275 39.8347C152.201 40.4907 150.939 40.8187 149.488 40.8187ZM148.385 35.6898C148.862 35.6898 149.289 35.5805 149.667 35.3618C150.045 35.1431 150.333 34.8449 150.532 34.4672C150.75 34.0895 150.86 33.6621 150.86 33.185C150.86 32.688 150.75 32.2606 150.532 31.9028C150.333 31.5251 150.045 31.2269 149.667 31.0082C149.309 30.7895 148.892 30.6802 148.414 30.6802C147.937 30.6802 147.51 30.7895 147.132 31.0082C146.774 31.207 146.486 31.4952 146.267 31.8729C146.069 32.2507 145.969 32.688 145.969 33.185C145.969 33.6621 146.069 34.0895 146.267 34.4672C146.466 34.8449 146.745 35.1431 147.102 35.3618C147.48 35.5805 147.908 35.6898 148.385 35.6898ZM140.453 46.7825V25.8495H146.297V29.4576L145.343 33.0061L146.148 36.5844V46.7825H140.453ZM164.766 40.8187C163.394 40.8187 162.182 40.4907 161.128 39.8347C160.074 39.1786 159.249 38.2841 158.653 37.1509C158.057 35.9979 157.758 34.6759 157.758 33.185C157.758 31.694 158.057 30.372 158.653 29.219C159.249 28.066 160.074 27.1714 161.128 26.5353C162.182 25.8793 163.394 25.5513 164.766 25.5513C165.621 25.5513 166.406 25.7004 167.122 25.9986C167.857 26.2769 168.463 26.6745 168.941 27.1913C169.438 27.7082 169.756 28.3046 169.895 28.9805V37.3895C169.756 38.0654 169.438 38.6618 168.941 39.1786C168.463 39.6955 167.857 40.103 167.122 40.4012C166.406 40.6795 165.621 40.8187 164.766 40.8187ZM166.078 35.6898C166.813 35.6898 167.4 35.4612 167.837 35.004C168.294 34.5268 168.523 33.9205 168.523 33.185C168.523 32.688 168.424 32.2606 168.225 31.9028C168.026 31.5251 167.738 31.2269 167.36 31.0082C167.002 30.7895 166.585 30.6802 166.108 30.6802C165.631 30.6802 165.203 30.7895 164.825 31.0082C164.468 31.2269 164.179 31.5251 163.961 31.9028C163.742 32.2805 163.633 32.7079 163.633 33.185C163.633 33.6621 163.732 34.0895 163.931 34.4672C164.15 34.8449 164.448 35.1431 164.825 35.3618C165.203 35.5805 165.621 35.6898 166.078 35.6898ZM168.344 40.5205V36.5844L169.149 33.0061L168.344 29.4576V25.8495H174.04V40.5205H168.344Z" fill="#0008D0"/>
<path d="M176.227 36.3756L186.008 23.4341H193.283L183.473 36.3756H176.227ZM176.227 40.5205V36.3756L179.477 35.6003H193.015V40.5205H176.227ZM176.704 24.2094V19.2892H193.283V23.4341L189.974 24.2094H176.704ZM195.489 40.5205V25.8495H201.334V40.5205H195.489ZM198.412 24.4778C197.557 24.4778 196.841 24.1895 196.265 23.613C195.708 23.0166 195.43 22.291 195.43 21.4362C195.43 20.5814 195.708 19.8657 196.265 19.2892C196.841 18.6929 197.557 18.3947 198.412 18.3947C199.286 18.3947 200.002 18.6929 200.559 19.2892C201.115 19.8657 201.394 20.5814 201.394 21.4362C201.394 22.291 201.115 23.0166 200.559 23.613C200.002 24.1895 199.286 24.4778 198.412 24.4778ZM213.443 40.5205V32.2904C213.443 31.7139 213.274 31.2766 212.936 30.9784C212.618 30.6603 212.211 30.5013 211.714 30.5013C211.376 30.5013 211.068 30.5708 210.789 30.71C210.531 30.8491 210.322 31.0579 210.163 31.3362C210.024 31.5946 209.954 31.9127 209.954 32.2904L207.688 31.2766C207.688 30.0838 207.927 29.06 208.404 28.2052C208.901 27.3504 209.577 26.6943 210.431 26.2371C211.306 25.7799 212.32 25.5513 213.473 25.5513C214.666 25.5513 215.699 25.7898 216.574 26.2669C217.449 26.7242 218.115 27.3603 218.572 28.1754C219.049 28.9705 219.288 29.8949 219.288 30.9485V40.5205H213.443ZM204.11 40.5205V18.6929H209.954V40.5205H204.11ZM228.763 40.8783C227.332 40.8783 226.06 40.6 224.947 40.0434C223.853 39.4868 222.988 38.7115 222.352 37.7175C221.716 36.7235 221.398 35.5904 221.398 34.3181V25.8495H227.243V34.3778C227.243 34.6759 227.302 34.9443 227.422 35.1829C227.561 35.4214 227.74 35.6103 227.958 35.7494C228.197 35.8687 228.465 35.9284 228.763 35.9284C229.181 35.9284 229.529 35.7892 229.807 35.5109C230.105 35.2127 230.254 34.835 230.254 34.3778V25.8495H236.099V34.3181C236.099 35.6103 235.781 36.7533 235.145 37.7473C234.528 38.7214 233.664 39.4868 232.55 40.0434C231.457 40.6 230.195 40.8783 228.763 40.8783ZM244.614 40.8187C243.242 40.8187 242.029 40.4907 240.976 39.8347C239.922 39.1786 239.097 38.2841 238.501 37.1509C237.904 35.9979 237.606 34.6759 237.606 33.185C237.606 31.694 237.904 30.372 238.501 29.219C239.097 28.066 239.922 27.1714 240.976 26.5353C242.029 25.8793 243.242 25.5513 244.614 25.5513C245.469 25.5513 246.254 25.7004 246.969 25.9986C247.705 26.2769 248.311 26.6745 248.788 27.1913C249.285 27.7082 249.603 28.3046 249.743 28.9805V37.3895C249.603 38.0654 249.285 38.6618 248.788 39.1786C248.311 39.6955 247.705 40.103 246.969 40.4012C246.254 40.6795 245.469 40.8187 244.614 40.8187ZM245.926 35.6898C246.661 35.6898 247.248 35.4612 247.685 35.004C248.142 34.5268 248.371 33.9205 248.371 33.185C248.371 32.688 248.272 32.2606 248.073 31.9028C247.874 31.5251 247.586 31.2269 247.208 31.0082C246.85 30.7895 246.433 30.6802 245.956 30.6802C245.478 30.6802 245.051 30.7895 244.673 31.0082C244.316 31.2269 244.027 31.5251 243.809 31.9028C243.59 32.2805 243.481 32.7079 243.481 33.185C243.481 33.6621 243.58 34.0895 243.779 34.4672C243.997 34.8449 244.296 35.1431 244.673 35.3618C245.051 35.5805 245.469 35.6898 245.926 35.6898ZM248.192 40.5205V36.5844L248.997 33.0061L248.192 29.4576V25.8495H253.887V40.5205H248.192Z" fill="#FF6C00"/>
<defs>
<clipPath id="clip0_725_328">
<rect width="66.8203" height="62.4219" fill="white"/>
</clipPath>
</defs>
</svg>
