<?xml version="1.0" encoding="UTF-8" standalone="no"?><!DOCTYPE svg PUBLIC "-//W3C//DTD SVG 1.1//EN" "http://www.w3.org/Graphics/SVG/1.1/DTD/svg11.dtd"><svg width="100%" height="100%" viewBox="0 0 59 29" version="1.1" xmlns="http://www.w3.org/2000/svg" xmlns:xlink="http://www.w3.org/1999/xlink" xml:space="preserve" xmlns:serif="http://www.serif.com/" style="fill-rule:evenodd;clip-rule:evenodd;stroke-linejoin:round;stroke-miterlimit:2;"><path d="M10.882,15.402l6.722,-10.066c1.252,-1.875 3.358,-3.001 5.613,-3.001c2.255,-0 4.361,1.126 5.614,3.001l3.303,4.946l-5.199,7.785c-0.829,-0.093 -1.673,-0.235 -2.524,-0.401c-2.835,-0.553 -5.736,-1.399 -8.43,-1.919c-1.886,-0.363 -3.617,-0.427 -5.099,-0.345Z" style="fill:#ffb636;"/><path d="M32.134,10.282l0.387,-0.579c1.252,-1.875 3.358,-3.001 5.613,-3.001c2.255,-0 4.361,1.126 5.613,3.001l4.671,6.995c-4.596,-1.431 -8.625,-0.938 -12.074,-0.111l-4.21,-6.305Z" style="fill:#ffb636;"/><path d="M6.892,20.182c-0.818,0.33 -1.749,-0.066 -2.08,-0.883c-0.33,-0.818 0.066,-1.75 0.884,-2.08c-0,0 4.382,-1.802 10.285,-0.664c2.694,0.519 5.595,1.366 8.43,1.919c2.58,0.503 5.098,0.779 7.307,0.184c5.145,-1.386 12.156,-4.171 20.964,0.682c0.772,0.425 1.053,1.398 0.628,2.17c-0.425,0.772 -1.398,1.054 -2.17,0.628c-7.809,-4.301 -14.029,-1.624 -18.591,-0.395c-2.14,0.577 -4.519,0.533 -6.985,0.171c-3.379,-0.496 -6.935,-1.594 -10.188,-2.222c-4.867,-0.938 -8.484,0.49 -8.484,0.49Z" style="fill:#ffb636;"/><path d="M6.892,24.451c-0.818,0.331 -1.749,-0.065 -2.08,-0.883c-0.33,-0.817 0.066,-1.749 0.884,-2.079c-0,-0 4.382,-1.803 10.285,-0.665c2.694,0.52 5.595,1.366 8.43,1.919c2.58,0.504 5.098,0.78 7.307,0.184c5.145,-1.386 12.156,-4.17 20.964,0.682c0.772,0.426 1.053,1.398 0.628,2.17c-0.425,0.773 -1.398,1.054 -2.17,0.629c-7.809,-4.302 -14.029,-1.624 -18.591,-0.395c-2.14,0.576 -4.519,0.533 -6.985,0.171c-3.379,-0.497 -6.935,-1.595 -10.188,-2.222c-4.867,-0.939 -8.484,0.489 -8.484,0.489Z" style="fill:#ffb636;"/></svg>