<?xml version="1.0" encoding="UTF-8" standalone="no"?><!DOCTYPE svg PUBLIC "-//W3C//DTD SVG 1.1//EN" "http://www.w3.org/Graphics/SVG/1.1/DTD/svg11.dtd"><svg width="100%" height="100%" viewBox="0 0 317 317" version="1.1" xmlns="http://www.w3.org/2000/svg" xmlns:xlink="http://www.w3.org/1999/xlink" xml:space="preserve" xmlns:serif="http://www.serif.com/" style="fill-rule:evenodd;clip-rule:evenodd;stroke-linecap:round;stroke-linejoin:round;stroke-miterlimit:1.5;"><circle cx="158.102" cy="158.102" r="156.214" style="fill:none;"/><clipPath id="_clip1"><circle cx="158.102" cy="158.102" r="156.214"/></clipPath><g clip-path="url(#_clip1)"><g><path d="M14.098,200.78c-3.204,-9.611 -0.901,-23.514 -0.901,-33.556c-0,-13.462 -3.175,-27.277 -1.917,-41.117c2.124,-23.357 14.431,-44.299 18.162,-66.682c2.339,-14.038 9.689,-52.17 17.061,-61.999c3.032,-4.042 5.413,-8.947 7.515,-13.15c5.149,-10.298 18.181,-24.813 26.299,-34.284c1.574,-1.835 14.09,-14.239 14.09,-15.968" style="fill:none;stroke:#0008d0;stroke-width:11.88px;"/><path d="M53.548,21.378c-0,13.506 -1.517,26.515 -7.514,38.51c-1.842,3.683 -0.899,8.843 -2.818,12.68c-3.685,7.371 2.347,19.262 0.939,26.3c-3.269,16.347 -6.214,26.226 -2.818,43.207c2.568,12.838 5.166,22.903 5.166,36.632c0,2.009 1.39,11.76 0,13.15c-2.153,2.154 -1.956,8.062 -4.696,10.802c-6.844,6.844 -14.046,15.455 -19.725,21.134c-1.991,1.99 -9.862,7.377 -9.862,9.862" style="fill:none;stroke:#0008d0;stroke-width:11.88px;"/><path d="M76.56,15.742c0,5.104 -1.939,10.771 -1.939,15.567c-0,11.738 0.042,27.695 -3.696,38.911c-3.841,11.522 -11.527,23.828 -9.393,36.632c1.124,6.747 1.942,13.466 3.287,20.195c1.871,9.354 -2.994,21.074 0,30.057c3.812,11.435 3.757,20.775 3.757,33.344c0,7.948 4.314,20.49 0.47,28.178c-4.914,9.829 -14.003,20.541 -21.603,28.649c-3.05,3.252 -11.272,9.898 -11.272,15.028" style="fill:none;stroke:#0008d0;stroke-width:11.88px;"/><path d="M96.285,4.94c0,16.108 -3.68,37.984 -0.469,53.539c1.875,9.084 3.222,19.036 2.348,28.648c-0.971,10.676 -5.348,19.879 -7.045,30.057c-1.336,8.019 0.539,16.631 -1.409,24.421c-2.095,8.38 0.245,20.461 2.818,28.179c1.725,5.175 -0.939,11.719 -0.939,16.907c-0,12.449 2.946,25.275 1.409,37.571c-1.89,15.117 -12.218,27.874 -21.604,40.389c-6.192,8.256 -8.6,21.75 -15.498,28.648" style="fill:none;stroke:#0008d0;stroke-width:11.88px;"/><path d="M123.055,-1.165c-0,19.618 -3.221,40.231 0.939,59.644c3.745,17.476 10.325,33.326 16.907,49.782c0.934,2.335 1.347,6.145 2.818,7.984c3.375,4.219 5.891,9.327 7.984,14.559c3.235,8.087 3.914,18.162 5.635,26.769c1.86,9.299 6.617,18.662 9.393,27.709c1.704,5.552 -0.245,12.128 0.47,17.846c2.063,16.505 2.792,34.728 13.15,45.086c2.169,2.169 9.126,-4.671 10.332,-5.636c8.768,-7.014 20.151,-9.837 29.587,-15.498c22.011,-13.207 53.969,-29.547 71.386,-46.964c6.071,-6.071 12.554,-15.159 18.316,-22.073c2.899,-3.479 17.846,-16.94 17.846,-18.316" style="fill:none;stroke:#0008d0;stroke-width:11.88px;"/><path d="M145.128,-7.27c-0,24.291 1.048,51.713 13.619,73.263c9.533,16.342 30.038,39.111 33.345,57.297c3.64,20.024 0.786,41.657 5.166,59.174c1.092,4.37 0.853,12.594 3.757,15.498c1.453,1.453 7.366,-6.649 7.984,-7.514c1.704,-2.386 4.606,-5.889 7.044,-7.514c3.843,-2.562 6.366,-7.749 10.333,-12.211c7.785,-8.758 17.399,-17.393 26.769,-24.421c7.641,-5.731 16.052,-8.783 24.421,-13.15c14.617,-7.626 29.11,-15.963 43.207,-24.421c2.896,-1.738 17.377,-16.197 17.377,-17.847" style="fill:none;stroke:#0008d0;stroke-width:11.88px;"/><path d="M318.895,66.463c-9.431,14.147 -21.465,21.03 -34.754,30.996c-12.047,9.035 -24.667,16.56 -38.51,23.482c-2.169,1.085 -8.358,6.043 -11.272,4.227c-11.366,-7.083 -15.633,-35.564 -19.255,-48.843c-3.607,-13.228 -6.92,-29.338 -13.15,-41.798c-7.504,-15.009 -17.598,-29.09 -25.36,-44.615" style="fill:none;stroke:#0008d0;stroke-width:11.88px;"/><path d="M229.663,17.62c3.34,6.681 11.262,27.662 12.68,34.754c0.88,4.4 4.635,20.132 7.515,23.012c0.423,0.423 1.187,-0.315 1.408,-0.469c5.207,-3.645 9.74,-7.256 14.559,-11.272c2.781,-2.317 17.847,-11.317 17.847,-14.559" style="fill:none;stroke:#0008d0;stroke-width:11.88px;"/><path d="M85.014,299.405c7.88,-9.851 20.197,-20.433 27.239,-30.997c3.652,-5.477 8.537,-13.233 13.15,-17.846c1.22,-1.22 4.497,5.067 5.636,5.636c7.43,3.715 14.582,15.537 18.785,22.542c9.726,16.21 28.046,23.032 47.903,20.195c12.669,-1.81 22.648,-12.732 33.815,-18.316c14.761,-7.381 32.569,-10.608 48.373,-14.559c4.249,-1.062 10.446,-4.227 14.558,-4.227" style="fill:none;stroke:#0008d0;stroke-width:11.88px;"/><path d="M108.026,310.676c11.873,-3.958 10.517,-7.984 23.013,-7.984c1.731,0 7.45,0.406 8.453,1.409c2.024,2.024 2.162,7.328 4.696,9.862c0.971,0.971 7.045,6.389 7.045,7.515" style="fill:none;stroke:#0008d0;stroke-width:11.88px;"/><path d="M130.099,213.46c0,-12.024 0.099,-25.433 -2.818,-37.101c-1.811,-7.244 -4.696,-17.385 -4.696,-24.421" style="fill:none;stroke:#0008d0;stroke-width:11.88px;"/></g></g><circle cx="158.102" cy="158.102" r="156.214" style="fill:none;stroke:#0008d0;stroke-width:3.78px;"/></svg>