<svg width="82" height="102" viewBox="0 0 82 102" fill="none" xmlns="http://www.w3.org/2000/svg">
<path d="M81.7835 45.3924L71.5345 29.844C71.0261 29.0724 69.9003 29.0724 69.3917 29.844L59.1427 45.3924C58.5757 46.2525 59.1886 47.4017 60.2141 47.4017H65.2885V66.9272C65.2885 72.2445 60.9905 76.5701 55.7072 76.5701C50.7966 76.5701 46.7394 72.8324 46.1913 68.0355C46.2112 67.6686 46.2222 67.2992 46.2222 66.9272V24.4173H54.7499C56.1306 24.4173 56.9557 22.8701 56.1924 21.7121L42.3944 0.779026C41.7098 -0.259675 40.1942 -0.259675 39.5096 0.779026L25.7113 21.7121C24.9481 22.8701 25.7731 24.4173 27.1539 24.4173H35.7778V66.9274C35.7778 67.2994 35.7887 67.6688 35.8087 68.0357C35.2606 72.8326 31.2032 76.5703 26.2927 76.5703C21.0095 76.5703 16.7114 72.2447 16.7114 66.9274V47.4017H21.7859C22.8114 47.4017 23.4243 46.2525 22.8572 45.3924L12.6083 29.844C12.0998 29.0724 10.9741 29.0724 10.4655 29.844L0.216513 45.3924C-0.350525 46.2525 0.262339 47.4017 1.28783 47.4017H6.36229V66.9272C6.36229 77.9874 15.303 86.9854 26.2925 86.9854C28.4288 86.987 30.5513 86.6415 32.5782 85.9623L38.7016 100.5C39.544 102.5 42.3601 102.5 43.2025 100.5L49.3377 85.9347C51.3899 86.6324 53.5417 86.9873 55.7078 86.9854C66.6973 86.9854 75.6379 77.9874 75.6379 66.9272V47.4017H80.7123C81.7378 47.4017 82.3505 46.2525 81.7835 45.3924Z" fill="#FFB636"/>
</svg>
